PathFileType	4	(X/Y/Z)	C:/Users/beibeiliu/ov580/test_trc\sequence.30_training_dense_right.trc
DataRate	CameraRate	NumFrames	NumMarkers	Units	OrigDataRate	OrigDataStartFrame	OrigNumFrames
120	120	14	19	mm	120	178	354
Frame#	Time	ThumbCMC			ThumbMCP			ThumbIP			ThumbTip			IndexMCP			IndexPIP			IndexTip			MiddleMCP			MiddlePIP			MiddleTip			RingMCP			RingPIP			RingTip			PinkyMCP			PinkyPIP			PinkyTip			BackHand1			BackHand2			BackHand3	
		X0	Y0	Z0	X1	Y1	Z1	X2	Y2	Z2	X3	Y3	Z3	X4	Y4	Z4	X5	Y5	Z5	X6	Y6	Z6	X7	Y7	Z7	X8	Y8	Z8	X9	Y9	Z9	X10	Y10	Z10	X11	Y11	Z11	X12	Y12	Z12	X13	Y13	Z13	X14	Y14	Z14	X15	Y15	Z15	X16	Y16	Z16	X17	Y17	Z17	X18	Y18	Z18	
177	1.475	248.962	25.626	67.3024	261.671	34.578	43.7753	269.783	31.8275	20.8634	281.404	39.6608	6.45237	257.407	12.5688	-3.17626	251.509	20.4663	-26.5324	248.93	32.3351	-44.1746	231.021	10.5013	-5.574	220.822	41.4969	-13.0774	209.119	54.5817	15.376	214.717	-5.55143	-4.33352	212.132	5.85163	-25.6402	207.589	25.8386	-40.3963	198.01	-15.2891	12.0821	200.834	-18.4379	-3.47661	200.512	-27.2961	-23.5397	219.462	-14.8127	46.3733	215.372	-15.5218	71.0741	243.086	-4.70967	60.2019	
178	1.48333	247.14	21.9992	67.0913	263.096	30.2133	41.0209	275.261	32.9866	22.8284	283.831	35.8607	7.08614	255.698	10.8638	-0.541339	251.658	19.9645	-24.0663	246.986	35.9099	-44.4297	230.748	13.5528	-4.59251	220.134	41.3255	-9.03507	212.39	48.6125	25.6695	217.109	-2.84916	-7.31909	209.62	7.79668	-25.8197	205.983	27.8552	-38.7747	200.547	-13.2996	11.4496	199.63	-17.5909	-5.32672	196.76	-27.4422	-20.0871	218.134	-13.6789	43.0321	213.845	-16.4133	67.5786	238.698	-5.95666	56.9011	
179	1.49167	249.631	19.6498	64.3051	261.212	27.8249	43.2499	271.219	29.9074	26.008	281.806	31.9446	8.06098	251.859	8.82199	-6.33545	252.826	22.2919	-24.6032	243.308	33.5763	-40.725	230.31	12.8024	-4.56701	216.59	39.9772	-6.12389	211.875	44.4341	26.7339	213.024	-4.04447	-6.68912	213.334	11.7827	-27.0991	207.868	33.2166	-38.927	199.886	-13.9142	6.19381	198.797	-16.7807	-6.37533	195.494	-28.0406	-23.0896	214.758	-15.3347	43.1307	211.201	-15.3638	68.9247	239.527	-7.70308	57.7825	
180	1.5	247.298	18.4699	65.2074	261.774	28.2875	45.892	273.179	26.9772	23.9836	286.49	32.2365	9.91476	251.055	5.97847	-1.11308	248.178	19.0445	-26.0756	245.546	35.451	-42.8829	229.137	14.2313	-5.03009	219.42	41.0642	-2.93306	213.835	41.008	29.456	217.272	-3.40268	-4.85041	210.576	12.4293	-28.8495	208.371	30.855	-37.6582	198.053	-13.482	10.7355	196.228	-18.4184	-7.02441	192.639	-27.2428	-22.6715	213.885	-18.3783	39.6617	211.32	-17.4124	70.9387	238.842	-9.78217	58.7087	
181	1.50833	249.062	16.9052	63.8713	263.34	24.6641	43.6549	273.701	26.075	26.7621	284.531	27.4798	10.0858	252.977	5.2011	-1.86631	249.071	17.99	-25.7678	244.26	32.9235	-40.9539	227.782	9.51596	-4.03486	218.493	39.0704	-3.48529	219.013	40.6298	30.0539	211.471	-6.84886	-3.89043	208.88	9.68094	-26.8827	211.612	31.0343	-36.5501	194.634	-15.7612	8.47522	195.336	-18.6113	-8.26178	194.189	-27.9345	-19.5629	217.083	-16.7796	44.8307	213.683	-17.2347	68.7709	236.723	-9.03653	58.6171	
182	1.51667	251.482	15.8325	65.6857	261.757	23.3034	46.1961	277.917	21.5687	22.9176	287.709	23.7789	8.27175	253.722	3.34512	-5.2248	248.915	13.7101	-25.6386	243.466	28.6028	-40.9193	230.057	7.64202	-3.57552	218.659	35.36	-6.48291	221.672	39.6739	29.3746	215.105	-7.74654	-2.44658	210.19	7.18861	-27.6627	207.337	29.8571	-37.8071	195.255	-17.3877	8.13491	195.767	-19.5258	-8.18882	194.494	-29.0402	-19.4502	216.236	-19.7481	41.2411	209.243	-17.223	70.1516	239.581	-12.5174	58.7935	
183	1.525	248.396	13.1367	65.4281	263.471	20.1649	43.7878	277.799	19.9987	26.0583	288.816	21.3669	9.98781	250.925	-0.980248	-0.623513	252.403	11.9232	-23.5926	249.734	25.605	-41.6412	227.496	6.17448	-4.58547	219.871	36.549	-5.14876	219.208	36.288	27.9769	213.643	-8.76116	-7.48129	212.346	6.88775	-28.4869	211.895	26.5807	-38.7168	192.756	-15.8912	11.5145	192.801	-21.0053	-6.45628	194.358	-31.9206	-23.5118	214.551	-20.3991	42.5811	209.592	-17.6494	70.8347	239.668	-12.8773	57.3772	
184	1.53333	252.132	11.2419	64.3791	263.673	15.8874	43.1046	277.938	16.4658	24.8632	286.753	16.8742	10.1818	254.268	-0.901991	-2.71064	252.05	9.35927	-25.8792	248.172	21.4698	-42.7363	228.762	6.55578	-6.09269	220.771	32.6774	-6.82897	221.534	36.2914	29.1864	214.707	-9.15991	-3.47069	215.55	4.16707	-26.9694	211.478	24.5186	-40.3979	196.706	-15.3919	11.712	190.531	-22.3254	-5.02873	189.503	-31.745	-19.2119	215.345	-18.4816	43.9204	213.607	-18.1215	68.749	237.964	-12.7388	58.3703	
185	1.54167	250.055	10.9699	67.2065	266.461	17.4597	47.7373	275.562	14.4317	27.052	288.337	15.0427	10.793	253.755	-2.87759	-3.45945	253.634	5.13415	-22.4977	248.083	20.9062	-45.6795	233.381	6.72785	-6.72212	222.797	33.9463	-4.10093	222.875	36.2974	25.4643	214.293	-10.0975	-6.84331	212.084	-0.626659	-24.2249	215.579	19.851	-40.6792	197.548	-15.9437	13.0899	193.534	-23.4332	-5.97687	189.52	-31.6036	-18.0303	215.613	-19.8448	42.3084	209.976	-16.7367	72.7863	238.72	-13.9019	61.3261	
186	1.55	250.674	9.98312	68.6951	267.329	14.7452	46.8536	277.542	10.9063	25.6498	290.55	12.5161	12.1526	254.859	-5.50364	0.587752	254.611	5.1416	-23.6905	250.184	18.7358	-43.4469	233.602	1.74685	-4.29785	227.901	30.8648	-9.26897	225.594	35.0336	26.8717	212.665	-12.2551	-5.49715	212.442	-0.92058	-24.3857	215.704	16.496	-40.9859	192.604	-19.0518	11.6658	195.525	-22.7515	-5.19338	192.757	-33.0564	-17.7878	214.786	-19.8152	45.6603	209.345	-19.6237	71.6636	239.417	-17.1737	56.9062	
187	1.55833	250.413	9.01453	69.4486	264.978	11.9964	45.3432	279.185	12.3237	28.7609	292.466	12.4934	14.5492	251.604	-8.61017	0.966776	256.167	3.09011	-25.54	250.218	15.1006	-42.9285	232.441	0.380607	-4.27239	229.508	31.8285	-6.1735	225.809	32.8597	25.3948	215.018	-12.8783	-5.50699	216.297	-2.75151	-23.6922	216.3	15.7389	-43.5989	192.42	-19.7747	10.3702	190.421	-25.2526	-5.87306	189.544	-36.2497	-20.337	210.784	-22.3636	46.2056	210.287	-20.3739	69.321	238.307	-17.2856	57.3218	
188	1.56667	249.58	7.63688	69.3273	268.288	12.8495	48.6121	279.754	7.79346	26.9957	293.245	9.67211	15.3478	254.69	-9.7131	-0.5564	253.659	1.40601	-24.0832	250.802	13.4247	-42.01	234.428	-0.103159	-6.78769	226.075	26.7246	-9.90469	226.573	30.92	25.755	216.651	-13.6244	-3.07242	214.591	-4.77899	-24.3897	215.196	12.2571	-43.6803	196.985	-18.1565	13.0238	194.396	-25.8289	-5.32788	191.918	-37.3479	-20.5302	210.633	-20.5139	47.7422	211.27	-21.1233	69.0568	233.65	-19.3172	61.7714	
189	1.575	254.536	5.87706	66.923	269.175	8.53328	45.6501	283.308	5.56526	26.026	293.306	5.37026	13.5852	253.969	-10.8164	2.73763	256.244	-0.265978	-23.8348	255.172	12.4226	-40.913	234.581	-1.82975	-6.39041	231.718	29.8597	-6.9108	229.601	32.7564	23.6299	216.558	-14.4557	-5.9321	218.051	-5.28864	-25.4061	214.707	9.18543	-42.7562	193.201	-17.5541	15.1154	195.395	-25.6928	-6.04551	191.661	-34.6307	-18.2744	210.099	-22.844	46.7456	210.936	-20.6652	71.5394	237.818	-18.7191	60.6243	
190	1.58333	252.706	6.23417	70.1957	268.589	7.11903	45.7543	281.681	5.34498	28.7806	295.425	2.79921	13.4166	255.616	-11.8175	0.431828	255.787	-2.23802	-22.5536	253.542	11.8239	-43.0834	234.115	-4.40487	-3.54716	229.305	27.7975	-7.01386	227.935	29.2647	25.6085	216.917	-14.1791	-6.17483	217.626	-6.26068	-24.8056	217.687	8.47929	-46.4313	198.163	-17.6466	15.0472	194.909	-25.5467	-3.76237	190.341	-34.9718	-17.7327	210.367	-22.4889	43.6991	210.148	-19.8924	73.276	239.379	-19.7102	60.6131	
